<svg id="flat" height="512" viewBox="0 0 512 512" width="512" xmlns="http://www.w3.org/2000/svg"><path d="m472 96a16 16 0 0 1 16 16v256a16 16 0 0 1 -16 16h-64v48l-48-48h-152a16 16 0 0 1 -16-16v-272z" fill="#4976f2"/><path d="m320 96a16 16 0 0 0 -16-16h-264a16 16 0 0 0 -16 16v216a16 16 0 0 0 16 16h64v48l48-48h152a16 16 0 0 0 16-16z" fill="#548aff"/><path d="m304 248v24a15.9958 15.9958 0 0 1 -16 16h-60.77a15.98273 15.98273 0 0 1 -13.31006-7.12012l-21.91994-32.87988-16-24v72h-112v-82.69995a37.30024 37.30024 0 0 1 37.30005-37.30005h67.05005a32.01468 32.01468 0 0 1 25.25976 12.3501l28.71021 36.9099 6.92993 8.90991 10.75 13.83009z" fill="#ffb089"/><path d="m456 208v120h-104v-104.64014l-15.68994 16.9502-8.58008 9.27a44.76675 44.76675 0 0 1 -32.71 14.37012c-.46 0-.91992 0-1.37988-.03028a44.7181 44.7181 0 0 1 -25.6601-8.9299l-41.48-31.11012a26.25741 26.25741 0 0 1 -2.81006-39.56982l8.31006-8.31006 16 16 6.41992-12.84009a5.71749 5.71749 0 0 1 10.66016 1.17017l6.91992 27.66992 21.37012 14.25 2.62988 1.75 30.62988-30.62988a31.99565 31.99565 0 0 1 22.62012-9.37012h82.75a24.00619 24.00619 0 0 1 24 24z" fill="#ffceb6"/><path d="m456 208v120h-104v-104.64014l-15.68994 16.9502-8.58008 9.27a44.76675 44.76675 0 0 1 -32.71 14.37012c-.46 0-.91992 0-1.37988-.03028a42.33321 42.33321 0 0 1 -5.6401-21.04978 41.84991 41.84991 0 0 1 5.37012-20.62012l2.62988 1.75 30.62988-30.62988a31.99565 31.99565 0 0 1 22.62012-9.37012h82.75a24.00619 24.00619 0 0 1 24 24z" fill="#ffbfa1"/><path d="m456 208v120h-104v-104.64014l-15.68994 16.9502-28.31006-28.31006 18.62988-18.62988a31.99565 31.99565 0 0 1 22.62012-9.37012h82.75a24.00619 24.00619 0 0 1 24 24z" fill="#f78e00"/><path d="m222.32007 225.26-30.32007 22.74-16-24v72h-112v-82.69995a37.30024 37.30024 0 0 1 37.30005-37.30005h67.05005a32.01468 32.01468 0 0 1 25.25976 12.3501z" fill="#ffb401"/><rect fill="#ffa100" height="26.882" rx="8" transform="matrix(.894 -.447 .447 .894 -86.345 74.204)" width="16" x="105.989" y="206.537"/><rect fill="#ffa100" height="29.282" rx="8" transform="matrix(.848 -.53 .53 .848 -118.4 78.42)" width="16.001" x="69.516" y="230.986"/><path d="m85.2766 258.04256 34.7234-26.04256 8 16h56l18.99061-12.66041a7.34387 7.34387 0 0 1 9.26655.91757 7.34388 7.34388 0 0 1 1.37566 8.47718l-5.63282 11.26566 19.359 12.906a10.4222 10.4222 0 0 1 4.641 8.67179 10.4222 10.4222 0 0 1 -10.42219 10.42221h-99.84189a32 32 0 0 1 -27.13592-15.04l-9.32341-14.91745z" fill="#ffceb6"/><rect fill="#e87000" height="16.001" rx="8" transform="matrix(.71 -.704 .704 .71 -69.116 386.761)" width="31.42" x="419.113" y="269.261"/><path d="m392 256 31.67222 32.32778a53.50829 53.50829 0 0 1 -37.83608 15.67222 53.50831 53.50831 0 0 1 -32.105-10.70166l-39.2303-29.42273a26.252 26.252 0 0 1 -10.50084-21.00161 26.252 26.252 0 0 1 7.68905-18.563l8.31095-8.311 16 16 6.41927-12.83854a5.71914 5.71914 0 0 1 5.11535-3.16146 5.71913 5.71913 0 0 1 5.54838 4.332l6.917 27.668 24 16z" fill="#ffceb6"/><path d="m144 152v36a12 12 0 1 1 -24 0v-36z" fill="#ffceb6"/><path d="m144 152v32a15.99555 15.99555 0 0 1 -16-16v-16z" fill="#ffbfa1"/><path d="m152 144h-24l-8 8v8a16 16 0 0 0 16 16 16 16 0 0 0 16-16z" fill="#ffceb6"/><path d="m120 152v-16a16 16 0 0 1 16-16h12.6863a11.31369 11.31369 0 0 1 11.3137 11.3137 11.31372 11.31372 0 0 1 -3.31371 8l-4.68629 4.6863h-24z" fill="#c47220"/><path d="m384 160v36a12 12 0 1 0 24 0v-36z" fill="#ffceb6"/><path d="m384 160v32a15.99555 15.99555 0 0 0 16-16v-16z" fill="#ffbfa1"/><path d="m376 152h24l8 8v8a16 16 0 0 1 -16 16 16 16 0 0 1 -16-16z" fill="#ffceb6"/><path d="m408 160v-16a16 16 0 0 0 -16-16h-12.6863a11.31369 11.31369 0 0 0 -11.3137 11.3137 11.31372 11.31372 0 0 0 3.31371 8l4.68629 4.6863h24z" fill="#c47220"/><rect fill="#e87000" height="16" rx="8" transform="matrix(.709 -.705 .705 .709 -54.607 355.536)" width="34.057" x="386.889" y="236"/></svg>