<svg id="flat" height="512" viewBox="0 0 512 512" width="512" xmlns="http://www.w3.org/2000/svg"><path d="m456 368a32 32 0 0 0 32-32v-264h-464v264a32 32 0 0 0 32 32z" fill="#548aff"/><path d="m488 336a32 32 0 0 0 -32-32h-24v-272h24a32 32 0 0 1 32 32z" fill="#7dafff"/><path d="m24 336a32 32 0 0 1 32-32h24v-272h-24a32 32 0 0 0 -32 32z" fill="#7dafff"/><path d="m216 312h80v64h-80z" fill="#f5714f"/><path d="m328 240a79.2659 79.2659 0 0 1 -13.31006 43.97l-18.68994 28.03h-80l-18.68994-28.03a79.27259 79.27259 0 0 1 -13.31006-43.97 72 72 0 0 1 144 0z" fill="#ffc431"/><path d="m295.84009 233.57-15.68018 78.43h-16.31982l12.21-61.04-15.25 11.43994a8.00978 8.00978 0 0 1 -9.6001 0l-15.24999-11.43994 12.2 61.04h-16.2999l-15.69019-78.43a7.99444 7.99444 0 0 1 12.64014-7.97l27.19995 20.4 27.2-20.4a7.99444 7.99444 0 0 1 12.64014 7.97z" fill="#ffd873"/><path d="m216 376 16 32h48l16-32z" fill="#e04f2b"/><path d="m161.37256 328a22.627 22.627 0 0 0 -16 6.62744l-116.40186 116.40198a16.97048 16.97048 0 0 0 11.99976 28.97058h119.02954a23.99994 23.99994 0 0 0 24-24v-105.37256a22.6274 22.6274 0 0 0 -22.62744-22.62744zm-25.37256 104h-40l40-40z" fill="#ffa100"/><path d="m64 456h16v24h-16z" fill="#f78e00"/><path d="m96 456h16v24h-16z" fill="#f78e00"/><path d="m128 456h16v24h-16z" fill="#f78e00"/><path d="m160 360h24v16h-24z" fill="#f78e00"/><path d="m160 392h24v16h-24z" fill="#f78e00"/><path d="m160 424h24v16h-24z" fill="#f78e00"/><path d="m400 440-24 40-24-40z" fill="#ffceb6"/><path d="m352 264h48v32h-48z" fill="#e8f2ff"/><path d="m352 320h48v120h-48z" fill="#ffc431"/><path d="m352 296h48v24h-48z" fill="#ffe28f"/><path d="m368 320h16v120h-16z" fill="#ffb401"/><g fill="#ffc431"><path d="m248 112h16v24h-16z"/><path d="m171.633 143.632h16v24h-16z" transform="matrix(.707 -.707 .707 .707 -57.435 172.603)"/><path d="m248 112h16v24h-16z"/><path d="m320.367 147.632h24v16h-24z" transform="matrix(.707 -.707 .707 .707 -12.695 280.618)"/><path d="m320.367 147.632h24v16h-24z" transform="matrix(.707 -.707 .707 .707 -12.695 280.618)"/><path d="m352 224h24v16h-24z"/><path d="m352 224h24v16h-24z"/><path d="m136 224h24v16h-24z"/></g></svg>