<svg id="Layer_3" enable-background="new 0 0 64 64" height="512" viewBox="0 0 64 64" width="512" xmlns="http://www.w3.org/2000/svg"><g><path d="m23.382 27h-.146c-.156 0-.31-.01-.461-.029-1.323-.17-2.319-1.201-2.648-2.461-.648.305-1.363.49-2.127.49s-1.479-.185-2.127-.491c-.329 1.26-1.325 2.292-2.648 2.461-.152.02-.306.03-.461.03h-.146c-1.998 0-3.618 1.62-3.618 3.618v5.382h18v-5.382c0-1.998-1.62-3.618-3.618-3.618z" fill="#efbe9c"/><path d="m23.382 27h-.146c-.156 0-.31-.01-.461-.029-.209-.027-.41-.077-.602-.144l-.759.759c-.905.905-2.133 1.414-3.414 1.414s-2.509-.509-3.414-1.414l-.759-.759c-.192.067-.392.117-.602.144-.152.019-.306.029-.461.029h-.146c-1.998 0-3.618 1.62-3.618 3.618v5.382h18v-5.382c0-1.998-1.62-3.618-3.618-3.618z" fill="#4472b0"/><path d="m23.236 27c-.156 0-.31-.01-.461-.029-.209-.027-.41-.077-.602-.144l-.759.759c-.905.905-2.133 1.414-3.414 1.414s-2.509-.509-3.414-1.414l-.759-.759c-.192.067-.392.117-.602.144-.152.019-.306.029-.461.029h-.146c-1.998 0-3.618 1.62-3.618 3.618v3.339c.333.015.662.043 1 .043 6.145 0 11.565-2.656 14.813-6.703-.439-.19-.922-.297-1.431-.297z" fill="#698ec0"/><g><path d="m12 32h2v4h-2z" fill="#335684"/></g><path d="m18 25c-2.761 0-5-2.239-5-5v-2c0-2.761 2.239-5 5-5 2.761 0 5 2.239 5 5v2c0 2.761-2.239 5-5 5z" fill="#efbe9c"/><g><path d="m22 32h2v4h-2z" fill="#335684"/></g><path d="m51.382 27h-.146c-.156 0-.31-.01-.461-.029-1.323-.17-2.319-1.201-2.648-2.461-.648.305-1.363.49-2.127.49s-1.479-.185-2.127-.491c-.329 1.26-1.325 2.292-2.648 2.461-.152.02-.306.03-.461.03h-.146c-1.998 0-3.618 1.62-3.618 3.618v5.382h18v-5.382c0-1.998-1.62-3.618-3.618-3.618z" fill="#efbe9c"/><path d="m51.382 27h-.146c-.156 0-.31-.01-.461-.029-.209-.027-.41-.077-.602-.144l-.759.759c-.905.905-2.133 1.414-3.414 1.414s-2.509-.509-3.414-1.414l-.759-.759c-.192.067-.392.117-.602.144-.152.019-.306.029-.461.029h-.146c-1.998 0-3.618 1.62-3.618 3.618v5.382h18v-5.382c0-1.998-1.62-3.618-3.618-3.618z" fill="#4472b0"/><path d="m51.236 27c-.156 0-.31-.01-.461-.029-.209-.027-.41-.077-.602-.144l-.759.759c-.905.905-2.133 1.414-3.414 1.414s-2.509-.509-3.414-1.414l-.759-.759c-.192.067-.392.117-.602.144-.152.019-.306.029-.461.029h-.146c-1.998 0-3.618 1.62-3.618 3.618v3.339c.333.015.662.043 1 .043 6.145 0 11.565-2.656 14.813-6.703-.439-.19-.922-.297-1.431-.297z" fill="#698ec0"/><g><path d="m40 32h2v4h-2z" fill="#335684"/></g><path d="m46 25c-2.761 0-5-2.239-5-5v-2c0-2.761 2.239-5 5-5 2.761 0 5 2.239 5 5v2c0 2.761-2.239 5-5 5z" fill="#efbe9c"/><path d="m37.382 24h-.146c-.156 0-.31-.01-.461-.029-1.323-.17-2.319-1.201-2.648-2.461-.648.305-1.363.49-2.127.49s-1.479-.185-2.127-.491c-.329 1.26-1.325 2.292-2.648 2.461-.152.02-.306.03-.461.03h-.146c-1.998 0-3.618 1.62-3.618 3.618v4.382h18v-4.382c0-1.998-1.62-3.618-3.618-3.618z" fill="#efbe9c"/><path d="m37.382 24h-.146c-.156 0-.31-.01-.461-.029-.209-.027-.41-.077-.602-.144l-.759.759c-.905.905-2.133 1.414-3.414 1.414s-2.509-.509-3.414-1.414l-.759-.759c-.192.067-.392.117-.602.144-.152.019-.306.029-.461.029h-.146c-1.998 0-3.618 1.62-3.618 3.618v4.382h18v-4.382c0-1.998-1.62-3.618-3.618-3.618z" fill="#4472b0"/><path d="m37.236 24c-.156 0-.31-.01-.461-.029-.209-.027-.41-.077-.602-.144l-.759.759c-.905.905-2.133 1.414-3.414 1.414s-2.509-.509-3.414-1.414l-.759-.759c-.192.067-.392.117-.602.144-.152.019-.306.029-.461.029h-.146c-1.998 0-3.618 1.62-3.618 3.618v3.339c.333.015.662.043 1 .043 6.145 0 11.565-2.656 14.813-6.703-.439-.19-.922-.297-1.431-.297z" fill="#698ec0"/><g><path d="m36 29h2v3h-2z" fill="#335684"/></g><g><path d="m26 29h2v3h-2z" fill="#335684"/></g><path d="m32 22c-2.761 0-5-2.239-5-5v-2c0-2.761 2.239-5 5-5 2.761 0 5 2.239 5 5v2c0 2.761-2.239 5-5 5z" fill="#efbe9c"/><path d="m36 50 20.957-5.716c1.657-.452 3.498.122 4.42 1.571.395.62.623 1.356.623 2.145v1l-32 11-6-2h-8v-16h12z" fill="#efbe9c"/><path d="m2 40h8v22h-8z" fill="#4472b0"/><path d="m10 40h6v20h-6z" fill="#698ec0"/><g><path d="m33 54.826c-.98 0-1.961-.373-2.707-1.119l-5-5 1.414-1.414 5 5c.713.713 1.873.713 2.586 0s.713-1.873 0-2.586l-6.707-6.707h-11.586v-2h12c.265 0 .52.105.707.293l7 7c1.493 1.492 1.493 3.922 0 5.414-.746.746-1.727 1.119-2.707 1.119z" fill="#b38f75"/></g><g><g><path d="m61.532 41.454-1.905-.609c.193-.604.367-1.216.521-1.837l1.941.48c-.162.655-.349 1.316-.557 1.966zm.983-3.962-1.969-.354c.112-.623.204-1.253.274-1.889l1.987.221c-.075.677-.173 1.357-.292 2.022zm-61.07-.226c-.114-.667-.207-1.341-.278-2.022l1.989-.207c.066.637.153 1.268.26 1.892zm61.522-3.83-1.998-.092c.021-.445.031-.894.031-1.344 0-.188-.002-.377-.006-.566l2-.039c.004.201.006.403.006.605 0 .481-.011.96-.033 1.436zm-61.944-.23c-.015-.4-.023-.802-.023-1.205 0-.28.003-.56.011-.836l1.999.055c-.007.259-.01.518-.01.78 0 .377.007.755.022 1.13zm59.873-3.68c-.054-.639-.129-1.271-.223-1.897l1.978-.299c.101.669.181 1.345.239 2.026zm-57.773-.214-1.991-.184c.062-.674.147-1.354.253-2.024l1.976.312c-.1.626-.18 1.258-.238 1.896zm57.203-3.56c-.137-.624-.294-1.241-.471-1.851l1.921-.557c.188.648.357 1.313.503 1.978zm-56.605-.21-1.95-.443c.149-.658.324-1.322.518-1.976l1.917.572c-.181.608-.343 1.223-.485 1.847zm55.541-3.455c-.218-.599-.455-1.188-.71-1.769l1.83-.807c.271.615.527 1.252.76 1.892zm-54.45-.201-1.874-.697c.238-.64.5-1.276.776-1.891l1.823.82c-.26.579-.502 1.169-.725 1.768zm52.912-3.286c-.294-.564-.607-1.119-.938-1.662l1.708-1.039c.353.579.69 1.177 1.003 1.775zm-51.344-.2-1.766-.939c.319-.6.662-1.195 1.019-1.771l1.699 1.055c-.335.54-.652 1.092-.952 1.655zm49.36-3.058c-.366-.521-.75-1.03-1.149-1.526l1.559-1.254c.426.529.835 1.073 1.227 1.63zm-47.348-.188-1.626-1.164c.396-.554.81-1.094 1.241-1.62l1.548 1.266c-.404.493-.792 1-1.163 1.518zm44.953-2.786c-.431-.47-.877-.923-1.338-1.362l1.38-1.447c.494.471.976.961 1.431 1.456zm-42.532-.169-1.462-1.365c.469-.502.955-.988 1.443-1.445l1.366 1.461c-.455.425-.909.879-1.347 1.349zm39.769-2.465c-.488-.408-.99-.801-1.505-1.177l1.179-1.615c.545.397 1.087.821 1.609 1.257zm-36.985-.148-1.271-1.545c.525-.432 1.065-.846 1.617-1.243l1.168 1.623c-.517.372-1.023.761-1.514 1.165zm33.898-2.104c-.537-.341-1.086-.663-1.646-.968l.955-1.758c.6.326 1.192.675 1.762 1.036zm-30.797-.121-1.059-1.697c.573-.357 1.167-.7 1.767-1.021l.942 1.764c-.561.3-1.112.618-1.65.954zm27.443-1.706c-.577-.267-1.164-.515-1.761-.743l.715-1.867c.63.241 1.264.508 1.884.794zm-24.081-.091-.824-1.822c.613-.277 1.247-.539 1.884-.778l.702 1.873c-.596.224-1.184.466-1.762.727zm20.512-1.276c-.606-.188-1.22-.355-1.843-.504l.464-1.945c.665.158 1.321.338 1.969.537zm-16.94-.063-.578-1.914c.65-.196 1.315-.372 1.975-.523l.446 1.949c-.617.141-1.237.305-1.843.488zm13.227-.82c-.624-.106-1.255-.191-1.892-.256l.203-1.99c.684.07 1.364.162 2.023.273zm-9.508-.034-.319-1.975c.675-.109 1.356-.196 2.026-.259l.186 1.992c-.638.059-1.269.142-1.893.242zm5.712-.352c-.381-.013-.769-.021-1.149-.019-.257 0-.51.004-.762.012l-.061-2c.303-.009.606-.013.912-.012.376 0 .753.007 1.129.021z" fill="#88929f"/></g></g><g><path d="m50 32h2v4h-2z" fill="#335684"/></g></g></svg>