<svg id="Layer_1" enable-background="new 0 0 128 128" height="512" viewBox="0 0 128 128" width="512" xmlns="http://www.w3.org/2000/svg"><g><path d="m123.395 107.02h-8.995v-58.526c0-3.859-3.141-7-7-7h-13.191c0-.06.005-.119.005-.18 0-15.558-12.656-28.214-28.214-28.214-15.557 0-28.214 12.656-28.214 28.214 0 .06.004.12.005.18h-13.192c-3.86 0-7 3.141-7 7v58.525h-8.994c-.552 0-1 .447-1 1v3.934c0 3.83 3.116 6.945 6.945 6.945h102.898c3.831 0 6.947-3.115 6.947-6.945v-3.934c0-.552-.447-.999-1-.999z" fill="#e6e7e8"/><g><g><path d="m103.4 38.494h-14.216c-.618 14.482-12.55 26.035-27.184 26.035-14.635 0-26.566-11.553-27.184-26.035h-14.217c-3.314 0-6 2.686-6 6v59.526h94.801v-59.526c0-3.314-2.686-6-6-6z" fill="#0089ef"/><path d="m100.372 47.331h-13.069c-3.991 10.072-13.811 17.198-25.303 17.198s-21.312-7.126-25.303-17.198h-13.07c-1.105 0-2 .895-2 2v54.689h80.745v-54.689c0-1.104-.895-2-2-2z" fill="#d4fbff"/><path d="m4.605 104.02v3.933c0 3.283 2.662 5.945 5.945 5.945h102.898c3.284 0 5.946-2.662 5.946-5.945v-3.933z" fill="#0089ef"/><path d="m4.605 104.02v3.933c0 3.283 2.662 5.945 5.945 5.945h102.898c3.284 0 5.946-2.662 5.946-5.945v-3.933z" fill="#0089ef"/><path d="m42.949 104.02v1.991c0 1.662 1.347 3.009 3.009 3.009h32.083c1.662 0 3.01-1.348 3.01-3.009v-1.991z" fill="#6dc9f7"/></g><g><path d="m62 100.101c-3.449 0-6.167-2.937-5.9-6.375l1.855-23.925h8.091l1.854 23.925c.267 3.438-2.451 6.375-5.9 6.375z" fill="#0089ef"/><path d="m62 64.529c-2.601 0-5.114-.373-7.497-1.054-.505.663-.817 1.481-.817 2.379 0 2.18 1.767 3.947 3.947 3.947h8.734c2.18 0 3.947-1.767 3.947-3.947 0-.898-.312-1.716-.817-2.379-2.383.682-4.896 1.054-7.497 1.054z" fill="#6dc9f7"/><circle cx="62" cy="37.315" fill="#ffd7e5" r="27.214"/><circle cx="62" cy="37.315" fill="#d4fbff" r="21.895"/><path d="m57.767 50.331c-.027 0-.053-.001-.08-.001-.838-.023-1.626-.405-2.162-1.049l-7.298-8.757c-1.032-1.239-.865-3.079.374-4.111 1.238-1.032 3.079-.865 4.111.373l5.176 6.212 13.505-14.506c1.097-1.18 2.945-1.247 4.125-.147 1.18 1.099 1.246 2.945.147 4.125l-15.763 16.93c-.551.595-1.326.931-2.135.931z" fill="#0089ef"/><path d="m62 18.42c11.587 0 21.066 9.003 21.838 20.395.034-.496.057-.995.057-1.5 0-12.092-9.803-21.895-21.895-21.895s-21.895 9.803-21.895 21.895c0 .505.023 1.004.057 1.5.771-11.392 10.25-20.395 21.838-20.395z" fill="#fff"/><g fill="#3a2c60"><path d="m102.375 66.257c-.553 0-1 .447-1 1v9.749c0 .553.447 1 1 1s1-.447 1-1v-9.749c0-.553-.447-1-1-1z"/><path d="m119.395 103.019h-8.994v-58.525c0-3.859-3.141-7-7-7h-13.192c0-.06.005-.119.005-.179 0-15.557-12.656-28.214-28.214-28.214s-28.214 12.657-28.214 28.214c0 .06.004.119.005.179h-13.192c-3.86 0-7 3.141-7 7v58.525h-8.994c-.552 0-1 .447-1 1v3.934c0 3.83 3.116 6.945 6.945 6.945h102.898c3.83 0 6.946-3.115 6.946-6.945v-3.934c.001-.552-.447-1-.999-1zm-15.994-63.525c2.757 0 5 2.243 5 5v58.525h-5.028v-21.18c0-.553-.447-1-1-1s-1 .447-1 1v21.181h-78.745v-53.689c0-.552.449-1 1-1h12.399c3.144 7.385 9.351 13.158 17.014 15.731-.221.557-.355 1.157-.355 1.792 0 2.469 1.825 4.505 4.193 4.871l-1.777 22.923c-.148 1.916.515 3.823 1.82 5.234 1.305 1.41 3.156 2.219 5.077 2.219s3.771-.809 5.077-2.22c1.306-1.41 1.969-3.317 1.82-5.233l-1.776-22.923c2.369-.366 4.194-2.402 4.194-4.871 0-.635-.134-1.235-.355-1.792 7.664-2.574 13.871-8.347 17.015-15.732h12.399c.552 0 1 .448 1 1v13.341c0 .553.447 1 1 1s1-.447 1-1v-13.34c0-1.654-1.346-3-3-3h-11.645c.735-2.174 1.211-4.464 1.393-6.837zm-34.357 25.145c.17.371.27.781.27 1.215 0 1.625-1.322 2.947-2.947 2.947h-8.733c-1.625 0-2.947-1.322-2.947-2.947 0-.435.1-.844.27-1.215 2.252.581 4.613.89 7.044.89 2.43 0 4.79-.309 7.043-.89zm-10.165 6.163h6.24l1.784 23.001c.107 1.382-.353 2.703-1.294 3.721-.942 1.018-2.224 1.578-3.609 1.578-1.386 0-2.668-.561-3.609-1.577-.941-1.018-1.401-2.34-1.294-3.722zm3.121-59.701c14.454 0 26.214 11.76 26.214 26.214s-11.76 26.214-26.214 26.214c-14.455 0-26.214-11.76-26.214-26.214s11.76-26.214 26.214-26.214zm-46.401 33.393c0-2.757 2.243-5 5-5h13.279c.182 2.373.658 4.663 1.393 6.837h-11.643c-1.654 0-3 1.346-3 3v53.688h-5.028v-58.525zm102.796 63.459c0 2.727-2.219 4.945-4.946 4.945h-102.899c-2.727 0-4.945-2.219-4.945-4.945v-2.934h112.79z"/><path d="m54.757 49.922c.721.864 1.78 1.378 2.894 1.407.012.001.104.002.116.002 1.084 0 2.129-.455 2.869-1.248l15.762-16.931c1.473-1.581 1.385-4.066-.196-5.538-.767-.715-1.771-1.088-2.812-1.049-1.046.037-2.016.48-2.728 1.246l-12.732 13.675-4.45-5.341c-1.385-1.66-3.861-1.885-5.52-.501-1.66 1.383-1.885 3.859-.502 5.521zm-5.515-12.742c.358-.298.793-.443 1.227-.443.55 0 1.097.234 1.476.689l5.176 6.212c.184.22.454.352.741.359.298.007.563-.108.759-.318l13.505-14.505c.349-.376.823-.593 1.335-.61.534-.029 1.002.163 1.377.513.774.722.817 1.938.097 2.712l-15.763 16.931c-.362.389-.875.611-1.405.611l-.053-.001c-.55-.015-1.068-.266-1.421-.689l-7.297-8.756c-.678-.814-.567-2.027.246-2.705z"/><path d="m62 60.21c12.624 0 22.895-10.271 22.895-22.895 0-12.625-10.271-22.895-22.895-22.895-12.625 0-22.895 10.271-22.895 22.896 0 12.623 10.271 22.894 22.895 22.894zm0-43.79c11.521 0 20.895 9.374 20.895 20.896s-9.373 20.894-20.895 20.894-20.895-9.373-20.895-20.895 9.374-20.895 20.895-20.895z"/></g></g></g></g></svg>