<svg id="Layer_1" enable-background="new 0 0 498.906 498.906" height="512" viewBox="0 0 498.906 498.906" width="512" xmlns="http://www.w3.org/2000/svg"><path d="m496.544 241.186c-113.228-184.556-381.141-184.259-494.182 0-3.149 5.134-3.149 11.601 0 16.734 113.042 184.261 381.123 184.281 494.182 0 3.149-5.133 3.149-11.6 0-16.734z" fill="#d3d1d1"/><path d="m2.362 241.186c-3.149 5.134-3.149 11.601 0 16.734 9.227 15.04 19.816 29.182 31.572 42.259 40.622 10.213 87.137 13.516 136.885 1.862 116.348-27.256 223.491-39.812 316.099-29.458 3.352-4.786 6.566-9.674 9.627-14.663 3.149-5.134 3.149-11.601 0-16.734-113.046-184.258-381.127-184.284-494.183 0z" fill="#e0e0e0"/><path d="m129.508 128.725c27.979 7.717 59.379 18.196 94.421 32.295 77.859 31.326 148.356 24.423 205.376 4.364-86.894-68.957-203.145-80.591-299.797-36.659z" fill="#eaeaea"/><path d="m344.866 224.332c-2.705-10.253-14.486-15.097-23.62-9.688-17.835 10.553-40.62-2.35-40.62-23.2 0-4.821 1.292-9.553 3.736-13.684 5.398-9.12.586-20.91-9.688-23.62-62.925-16.6-123.903 31.177-123.903 95.413 0 54.413 44.269 98.682 98.682 98.682 64.294 0 111.996-61.044 95.413-123.903z" fill="#777"/><path d="m321.246 214.644c-4.131 2.444-8.862 3.736-13.684 3.736-20.831 0-33.762-22.771-23.2-40.62 5.398-9.12.586-20.91-9.688-23.62-73.436-19.373-140.459 48.339-120.401 121.483 13.455-2.074 28.552-5.867 45.503-11.759 59.99-20.854 109.531-19.36 148.221-9.104.536-10.292-.519-20.526-3.131-30.429-2.705-10.252-14.486-15.096-23.62-9.687z" fill="#848484"/></svg>